#N canvas 405 232 567 432 10;
#X obj 117 175 * 1.5708;
#X obj 117 60 inlet;
#X obj 38 62 inlet~;
#X obj 39 351 outlet~;
#X obj 130 355 outlet~;
#X obj 58 207 cos;
#X obj 147 209 sin;
#X obj 130 324 *~;
#X obj 39 320 *~;
#X obj 147 293 line~;
#X obj 147 267 pack 0 10;
#X obj 58 296 line~;
#X obj 58 270 pack 0 10;
#N canvas 228 198 627 317 LICENSE-BSD 0;
#X text 121 56 This software is copyrighted by Miller Puckette \, Reality
Jockey Ltd. and others. The terms (the "Standard Improved BSD License")
apply to all files associated with the software unless explicitly disclaimed
in individual files.;
#X text 123 148 See the file LICENSE.txt for the full license text.
;
#X restore 403 50 pd LICENSE-BSD;
#X connect 0 0 5 0;
#X connect 0 0 6 0;
#X connect 1 0 0 0;
#X connect 2 0 7 0;
#X connect 2 0 8 0;
#X connect 5 0 12 0;
#X connect 6 0 10 0;
#X connect 7 0 4 0;
#X connect 8 0 3 0;
#X connect 9 0 7 1;
#X connect 10 0 9 0;
#X connect 11 0 8 1;
#X connect 12 0 11 0;
