#N canvas 468 202 1347 964 10;
#X msg 529 229 stop;
#X obj 77 37 inlet~;
#X obj 143 37 inlet~;
#X obj 309 124 f \$1;
#X obj 385 56 r Samplename;
#X obj 362 122 symbol;
#X msg 385 79 symbol \$1;
#X obj 309 156 pack f s f s;
#X obj 874 113 symbol;
#X obj 913 42 r Sampleadress;
#X obj 681 22 r Takevalue;
#X obj 874 21 r push_sampladress;
#X obj 362 13 r push_samplename;
#X obj 309 34 r push_Voicenumber;
#X obj 529 202 r Stoprecord;
#X obj 310 255 print;
#X msg 311 227 open \$4\$2_ISO\$1_T\$3.wav \, start;
#X obj 77 579 writesf~ 2;
#X obj 97 183 env~;
#X obj 116 265 tgl 15 0 empty empty empty 17 7 0 10 -262144 -1 -1 1
1;
#X obj 71 319 snapshot~;
#X obj 100 205 - 100;
#X obj 81 290 metro 50;
#X obj 186 180 env~;
#X obj 222 258 tgl 15 0 empty empty empty 17 7 0 10 -262144 -1 -1 1
1;
#X obj 177 312 snapshot~;
#X obj 189 202 - 100;
#X obj 187 283 metro 50;
#X obj 117 384 s vu-peakL\$1;
#X obj 106 230 s vu-rmsL\$1;
#X obj 218 380 s vu-peakR\$1;
#X obj 195 227 s vu-rmsR\$1;
#X obj 515 303 loadbang;
#X obj 83 71 s~ ISOLeft\$1-tosum;
#X obj 150 93 s~ ISORight\$1-tosum;
#X obj 205 335 - 100;
#X obj 102 347 - 100;
#X connect 0 0 17 0;
#X connect 1 0 17 0;
#X connect 1 0 18 0;
#X connect 1 0 20 0;
#X connect 1 0 33 0;
#X connect 2 0 17 1;
#X connect 2 0 25 0;
#X connect 2 0 23 0;
#X connect 2 0 34 0;
#X connect 3 0 7 0;
#X connect 4 0 6 0;
#X connect 5 0 7 1;
#X connect 6 0 5 1;
#X connect 7 0 16 0;
#X connect 8 0 7 3;
#X connect 9 0 8 1;
#X connect 10 0 7 2;
#X connect 11 0 8 0;
#X connect 12 0 5 0;
#X connect 13 0 3 0;
#X connect 14 0 0 0;
#X connect 16 0 15 0;
#X connect 16 0 17 0;
#X connect 18 0 21 0;
#X connect 19 0 22 0;
#X connect 20 0 36 0;
#X connect 21 0 29 0;
#X connect 22 0 20 0;
#X connect 23 0 26 0;
#X connect 24 0 27 0;
#X connect 25 0 35 0;
#X connect 26 0 31 0;
#X connect 27 0 25 0;
#X connect 32 0 24 0;
#X connect 32 0 19 0;
#X connect 35 0 30 0;
#X connect 36 0 28 0;
