#N canvas 0 50 1920 998 10;
#X obj 34 62 s Sampleadress;
#X obj 449 11 +;
#X obj 436 -49 t b f;
#X msg 446 -12 1;
#X obj 528 -65 loadbang;
#X msg 494 -38 1;
#X obj 435 73 s Takevalue;
#X obj 434 44 f 1;
#X obj 157 116 bng 15 250 50 0 empty empty INDICATOR_START_RECORD 17
7 0 10 -262144 -1 -1;
#X obj 567 -9 t b b b b;
#X obj 620 14 s push_sampladress;
#X obj 600 37 s push_samplename;
#X obj 580 61 s push_Voicenumber;
#X obj 311 116 bng 15 250 50 0 empty empty INDICATOR_STOP_RECORD 17
7 0 10 -262144 -1 -1;
#X obj 184 65 s Samplename;
#X obj 109 879 ISOREC 1;
#X floatatom 541 104 5 0 0 0 - - -, f 5;
#X obj 110 557 r~ ISO1Left;
#X obj 161 576 r~ ISO1Right;
#X obj 172 597 r~ ISO2Left;
#X obj 223 618 r~ ISO2Right;
#X obj 285 657 r~ ISO3Right;
#X obj 296 678 r~ ISO4Left;
#X obj 349 697 r~ ISO4Right;
#X obj 358 718 r~ ISO5Left;
#X obj 409 738 r~ ISO5Right;
#X obj 420 758 r~ ISO6Left;
#X obj 473 777 r~ ISO6Right;
#X obj 482 798 r~ ISO7Left;
#X obj 535 817 r~ ISO7Right;
#X obj 544 837 r~ ISO8Left;
#X obj 596 856 r~ ISO8Right;
#X obj 34 20 inlet;
#X obj 184 24 inlet;
#X obj 521 104 bng 15 250 50 0 empty empty empty 17 7 0 10 -262144
-1 -1;
#X text 468 116 REFRESH COUNTER;
#X obj 104 136 vu 8 80 empty empty -1 -8 0 10 -66577 -1 1 0;
#X obj 142 137 vu 8 80 empty empty -1 -8 0 10 -66577 -1 0 0;
#X obj 155 137 vu 8 80 empty empty -1 -8 0 10 -66577 -1 1 0;
#X obj 193 138 vu 8 80 empty empty -1 -8 0 10 -66577 -1 0 0;
#X obj 206 138 vu 8 80 empty empty -1 -8 0 10 -66577 -1 1 0;
#X obj 244 139 vu 8 80 empty empty -1 -8 0 10 -66577 -1 0 0;
#X obj 257 139 vu 8 80 empty empty -1 -8 0 10 -66577 -1 1 0;
#X obj 295 140 vu 8 80 empty empty -1 -8 0 10 -66577 -1 0 0;
#X obj 1206 276 r vu-rmsL1;
#X obj 1379 235 r vu-rmsR1;
#X obj 1202 314 r vu-peakL1;
#X obj 1377 258 r vu-peakR1;
#X obj 1454 298 r vu-rmsL2;
#X obj 1453 316 r vu-peakL2;
#X obj 1557 240 r vu-rmsR2;
#X obj 1556 260 r vu-peakR2;
#X obj 1638 300 r vu-rmsL3;
#X obj 1637 323 r vu-peakL3;
#X obj 1746 243 r vu-rmsR3;
#X obj 1745 263 r vu-peakR3;
#X obj 1813 297 r vu-rmsL4;
#X obj 1926 247 r vu-rmsR4;
#X obj 1925 267 r vu-peakR4;
#X obj 1812 315 r vu-peakL4;
#X obj 308 140 vu 8 80 empty empty -1 -8 0 10 -66577 -1 1 0;
#X obj 346 141 vu 8 80 empty empty -1 -8 0 10 -66577 -1 0 0;
#X obj 359 141 vu 8 80 empty empty -1 -8 0 10 -66577 -1 1 0;
#X obj 397 142 vu 8 80 empty empty -1 -8 0 10 -66577 -1 0 0;
#X obj 410 142 vu 8 80 empty empty -1 -8 0 10 -66577 -1 1 0;
#X obj 448 143 vu 8 80 empty empty -1 -8 0 10 -66577 -1 0 0;
#X obj 461 143 vu 8 80 empty empty -1 -8 0 10 -66577 -1 1 0;
#X obj 499 144 vu 8 80 empty empty -1 -8 0 10 -66577 -1 0 0;
#X obj 2033 297 r vu-rmsL5;
#X obj 2033 317 r vu-peakL5;
#X obj 2118 245 r vu-rmsR5;
#X obj 2116 265 r vu-peakR5;
#X obj 2209 295 r vu-rmsL6;
#X obj 2208 313 r vu-peakL6;
#X obj 2296 247 r vu-rmsR6;
#X obj 2295 267 r vu-peakR6;
#X obj 2390 296 r vu-rmsL7;
#X obj 2389 314 r vu-peakL7;
#X obj 2485 250 r vu-rmsR7;
#X obj 2484 270 r vu-peakR7;
#X obj 2576 289 r vu-rmsL8;
#X obj 2575 307 r vu-peakL8;
#X obj 2665 254 r vu-rmsR8;
#X obj 2664 274 r vu-peakR8;
#X obj 719 413 env~;
#X obj 738 495 tgl 15 0 empty empty empty 17 7 0 10 -262144 -1 -1 1
1;
#X obj 693 549 snapshot~;
#X obj 722 435 - 100;
#X obj 703 520 metro 50;
#X obj 808 410 env~;
#X obj 799 542 snapshot~;
#X obj 811 432 - 100;
#X obj 1200 478 loadbang;
#X obj 728 460 s vu-rmsMixL;
#X obj 818 461 s vu-rmsMixR;
#X obj 726 634 s vu-peakMixL;
#X obj 834 633 s vu-peakMixR;
#X obj 525 144 vu 15 120 empty empty -1 -8 0 10 -66577 -1 1 0;
#X obj 573 144 vu 15 120 empty empty -1 -8 0 10 -66577 -1 0 0;
#X obj 701 125 r vu-rmsMixR;
#X obj 611 90 r vu-rmsMixL;
#X obj 610 112 r vu-peakMixL;
#X obj 718 147 r vu-peakMixR;
#X obj 234 638 r~ ISO3Left;
#X obj 824 377 dac~;
#N canvas 696 56 1920 998 SUM8t01 0;
#X obj 387 461 +~;
#X obj 643 509 line~;
#X msg 643 489 \$1 20;
#X obj 643 468 r VCAfader;
#X obj 642 532 s~ ISOlvl;
#X obj 68 84 r~ ISOlvl;
#X obj 24 112 *~;
#X obj 224 85 r~ ISOlvl;
#X obj 180 113 *~;
#X obj 347 83 r~ ISOlvl;
#X obj 303 111 *~;
#X obj 503 84 r~ ISOlvl;
#X obj 459 112 *~;
#X obj 638 82 r~ ISOlvl;
#X obj 594 110 *~;
#X obj 794 83 r~ ISOlvl;
#X obj 750 111 *~;
#X obj 917 81 r~ ISOlvl;
#X obj 873 109 *~;
#X obj 1073 82 r~ ISOlvl;
#X obj 1029 110 *~;
#X obj 138 153 r~ ISOlvl;
#X obj 94 181 *~;
#X obj 294 154 r~ ISOlvl;
#X obj 250 183 *~;
#X obj 417 152 r~ ISOlvl;
#X obj 373 180 *~;
#X obj 573 153 r~ ISOlvl;
#X obj 529 181 *~;
#X obj 708 151 r~ ISOlvl;
#X obj 664 179 *~;
#X obj 864 152 r~ ISOlvl;
#X obj 820 180 *~;
#X obj 987 150 r~ ISOlvl;
#X obj 943 178 *~;
#X obj 1143 151 r~ ISOlvl;
#X obj 1099 179 *~;
#X obj 420 462 +~;
#X obj 388 554 outlet~;
#X obj 420 520 outlet~;
#X obj 23 65 r~ ISOLeft1-tosum;
#X obj 165 65 r~ ISOLeft2-tosum;
#X obj 304 64 r~ ISOLeft3-tosum;
#X obj 446 64 r~ ISOLeft4-tosum;
#X obj 587 63 r~ ISOLeft5-tosum;
#X obj 729 63 r~ ISOLeft6-tosum;
#X obj 868 62 r~ ISOLeft7-tosum;
#X obj 1010 62 r~ ISOLeft8-tosum;
#X obj 89 134 r~ ISORight1-tosum;
#X obj 231 133 r~ ISORight2-tosum;
#X obj 370 133 r~ ISORight3-tosum;
#X obj 512 133 r~ ISORight4-tosum;
#X obj 653 132 r~ ISORight5-tosum;
#X obj 795 132 r~ ISORight6-tosum;
#X obj 934 131 r~ ISORight7-tosum;
#X obj 1076 131 r~ ISORight8-tosum;
#X connect 0 0 38 0;
#X connect 1 0 4 0;
#X connect 2 0 1 0;
#X connect 3 0 2 0;
#X connect 5 0 6 1;
#X connect 6 0 0 0;
#X connect 7 0 8 1;
#X connect 8 0 0 0;
#X connect 9 0 10 1;
#X connect 10 0 0 0;
#X connect 11 0 12 1;
#X connect 12 0 0 0;
#X connect 13 0 14 1;
#X connect 14 0 0 0;
#X connect 15 0 16 1;
#X connect 16 0 0 0;
#X connect 17 0 18 1;
#X connect 18 0 0 0;
#X connect 19 0 20 1;
#X connect 20 0 0 0;
#X connect 21 0 22 1;
#X connect 22 0 37 0;
#X connect 23 0 24 1;
#X connect 24 0 37 0;
#X connect 25 0 26 1;
#X connect 26 0 37 0;
#X connect 27 0 28 1;
#X connect 28 0 37 0;
#X connect 29 0 30 1;
#X connect 30 0 37 0;
#X connect 31 0 32 1;
#X connect 32 0 37 0;
#X connect 33 0 34 1;
#X connect 34 0 37 0;
#X connect 35 0 36 1;
#X connect 36 0 37 0;
#X connect 37 0 39 0;
#X connect 40 0 6 0;
#X connect 41 0 8 0;
#X connect 42 0 10 0;
#X connect 43 0 12 0;
#X connect 44 0 14 0;
#X connect 45 0 16 0;
#X connect 46 0 18 0;
#X connect 47 0 20 0;
#X connect 48 0 22 0;
#X connect 49 0 24 0;
#X connect 50 0 26 0;
#X connect 51 0 28 0;
#X connect 52 0 30 0;
#X connect 53 0 32 0;
#X connect 54 0 34 0;
#X connect 55 0 36 0;
#X restore 740 328 pd SUM8t01;
#X obj 858 586 - 100;
#X obj 706 587 - 100;
#X obj 171 879 ISOREC 2;
#X obj 233 879 ISOREC 3;
#X obj 295 879 ISOREC 4;
#X obj 357 879 ISOREC 5;
#X obj 419 879 ISOREC 6;
#X obj 481 879 ISOREC 7;
#X obj 543 879 ISOREC 8;
#X obj 597 -57 r startrecord;
#X msg 528 -43 1;
#X obj 777 709 +~;
#X obj 739 677 *~ 0.707;
#X obj 804 677 *~ 0.707;
#X obj 778 20 r Stoprecord;
#X msg 731 859 stop;
#X obj 725 797 abs~;
#X obj 777 756 lop~ 5;
#X obj 778 775 *~ 100;
#X obj 728 841 bng 15 250 50 0 empty empty empty 17 7 0 10 -262144
-1 -1;
#X obj 923 841 bng 15 250 50 0 empty empty empty 17 7 0 10 -262144
-1 -1;
#X obj 726 818 threshold~ 0.1 500 1e-005 10;
#X obj 795 888 delay 1000;
#X obj 995 859 r delaytime;
#X obj 795 913 s Stoprecord;
#X obj 778 728 *~ 0;
#X obj 830 698 r Stoprecord;
#X msg 829 722 0;
#X obj 925 698 r startrecord;
#X msg 924 720 1;
#X obj 1956 351 r~ fPAN1Left;
#X obj 2007 370 r~ fPAN1Right;
#X obj 2018 391 r~ fPAN2Left;
#X obj 2069 412 r~ fPAN2Right;
#X obj 2080 432 r~ fPAN3Left;
#X obj 2131 451 r~ fPAN3Right;
#X obj 2142 472 r~ fPAN4Left;
#X obj 2195 491 r~ fPAN4Right;
#X obj 2204 512 r~ fPAN5Left;
#X obj 2255 532 r~ fPAN5Right;
#X obj 2266 552 r~ fPAN6Left;
#X obj 2319 571 r~ fPAN6Right;
#X obj 2328 592 r~ fPAN7Left;
#X obj 2381 611 r~ fPAN7Right;
#X obj 2390 631 r~ fPAN8Left;
#X obj 2442 650 r~ fPAN8Right;
#X obj 1796 365 r~ fPHI1Left;
#X obj 1842 384 r~ fPHI1Right;
#X obj 1853 405 r~ fPHI2Left;
#X obj 1904 426 r~ fPHI2Right;
#X obj 1915 446 r~ fPHI3Left;
#X obj 1966 465 r~ fPHI3Right;
#X obj 1977 486 r~ fPHI4Left;
#X obj 2030 505 r~ fPHI4Right;
#X obj 2039 526 r~ fPHI5Left;
#X obj 2090 546 r~ fPHI5Right;
#X obj 2101 566 r~ fPHI6Left;
#X obj 2154 585 r~ fPHI6Right;
#X obj 2163 606 r~ fPHI7Left;
#X obj 2216 625 r~ fPHI7Right;
#X obj 2225 645 r~ fPHI8Left;
#X obj 2277 664 r~ fPHI8Right;
#X obj 1851 505 +~;
#X obj 1852 820 s~ ISO1Left;
#X obj 1884 798 s~ ISO1Right;
#X obj 1885 503 +~;
#X obj 1909 528 +~;
#X obj 1943 526 +~;
#X obj 1968 553 +~;
#X obj 2002 551 +~;
#X obj 2025 576 +~;
#X obj 2059 574 +~;
#X obj 2078 617 +~;
#X obj 2112 615 +~;
#X obj 2136 640 +~;
#X obj 2170 638 +~;
#X obj 2195 665 +~;
#X obj 2228 673 +~;
#X obj 2252 688 +~;
#X obj 2286 686 +~;
#X obj 1910 843 s~ ISO2Left;
#X obj 1942 821 s~ ISO2Right;
#X obj 1969 868 s~ ISO3Left;
#X obj 2001 846 s~ ISO3Right;
#X obj 2026 891 s~ ISO4Left;
#X obj 2058 869 s~ ISO4Right;
#X obj 2079 932 s~ ISO5Left;
#X obj 2111 910 s~ ISO5Right;
#X obj 2137 955 s~ ISO6Left;
#X obj 2169 933 s~ ISO6Right;
#X obj 2196 980 s~ ISO7Left;
#X obj 2228 958 s~ ISO7Right;
#X obj 2253 1003 s~ ISO8Left;
#X obj 2285 981 s~ ISO8Right;
#X text 203 103 don't touch the indicator;
#N canvas 0 50 450 300 MIXREC 0;
#X obj 142 579 writesf~ 2;
#X msg 529 229 stop;
#X obj 142 37 inlet~;
#X obj 208 37 inlet~;
#X obj 385 56 r Samplename;
#X obj 362 122 symbol;
#X msg 532 40 symbol EAU;
#X msg 385 79 symbol \$1;
#X obj 874 113 symbol;
#X obj 913 42 r Sampleadress;
#X obj 681 22 r Takevalue;
#X obj 874 21 r push_sampladress;
#X obj 362 13 r push_samplename;
#X obj 529 202 r Stoprecord;
#X obj 310 255 print;
#X msg 311 227 open \$3\$1_MIX_T\$2.wav \, start;
#X obj 309 156 pack s f s;
#X connect 1 0 0 0;
#X connect 2 0 0 0;
#X connect 3 0 0 1;
#X connect 4 0 7 0;
#X connect 5 0 16 0;
#X connect 6 0 5 1;
#X connect 7 0 5 1;
#X connect 8 0 16 2;
#X connect 9 0 8 1;
#X connect 10 0 16 1;
#X connect 11 0 8 0;
#X connect 12 0 5 0;
#X connect 13 0 1 0;
#X connect 15 0 14 0;
#X connect 15 0 0 0;
#X connect 16 0 15 0;
#X restore 659 378 pd MIXREC;
#X connect 1 0 7 1;
#X connect 2 0 3 0;
#X connect 2 1 1 1;
#X connect 3 0 1 0;
#X connect 4 0 116 0;
#X connect 5 0 7 1;
#X connect 7 0 2 0;
#X connect 7 0 6 0;
#X connect 7 0 16 0;
#X connect 9 0 7 0;
#X connect 9 1 12 0;
#X connect 9 2 11 0;
#X connect 9 3 10 0;
#X connect 17 0 15 0;
#X connect 18 0 15 1;
#X connect 19 0 108 0;
#X connect 20 0 108 1;
#X connect 21 0 109 1;
#X connect 22 0 110 0;
#X connect 23 0 110 1;
#X connect 24 0 111 0;
#X connect 25 0 111 1;
#X connect 26 0 112 0;
#X connect 27 0 112 1;
#X connect 28 0 113 0;
#X connect 29 0 113 1;
#X connect 30 0 114 0;
#X connect 31 0 114 1;
#X connect 32 0 0 0;
#X connect 33 0 14 0;
#X connect 34 0 5 0;
#X connect 44 0 36 0;
#X connect 45 0 37 0;
#X connect 46 0 36 1;
#X connect 47 0 37 1;
#X connect 48 0 38 0;
#X connect 49 0 38 1;
#X connect 50 0 39 0;
#X connect 51 0 39 1;
#X connect 52 0 40 0;
#X connect 53 0 40 1;
#X connect 54 0 41 0;
#X connect 55 0 41 1;
#X connect 56 0 42 0;
#X connect 57 0 43 0;
#X connect 58 0 43 1;
#X connect 59 0 42 1;
#X connect 68 0 60 0;
#X connect 69 0 60 1;
#X connect 70 0 61 0;
#X connect 71 0 61 1;
#X connect 72 0 62 0;
#X connect 73 0 62 1;
#X connect 74 0 63 0;
#X connect 75 0 63 1;
#X connect 76 0 64 0;
#X connect 77 0 64 1;
#X connect 78 0 65 0;
#X connect 79 0 65 1;
#X connect 80 0 66 0;
#X connect 81 0 66 1;
#X connect 82 0 67 0;
#X connect 83 0 67 1;
#X connect 84 0 87 0;
#X connect 85 0 88 0;
#X connect 86 0 107 0;
#X connect 87 0 93 0;
#X connect 88 0 86 0;
#X connect 88 0 90 0;
#X connect 89 0 91 0;
#X connect 90 0 106 0;
#X connect 91 0 94 0;
#X connect 92 0 85 0;
#X connect 99 0 98 0;
#X connect 100 0 97 0;
#X connect 101 0 97 1;
#X connect 102 0 98 1;
#X connect 103 0 109 0;
#X connect 105 0 104 0;
#X connect 105 0 84 0;
#X connect 105 0 86 0;
#X connect 105 0 118 0;
#X connect 105 0 201 0;
#X connect 105 1 104 1;
#X connect 105 1 89 0;
#X connect 105 1 90 0;
#X connect 105 1 119 0;
#X connect 105 1 201 1;
#X connect 106 0 96 0;
#X connect 107 0 95 0;
#X connect 115 0 8 0;
#X connect 115 0 9 0;
#X connect 116 0 7 0;
#X connect 117 0 131 0;
#X connect 118 0 117 0;
#X connect 119 0 117 0;
#X connect 120 0 13 0;
#X connect 121 0 128 0;
#X connect 122 0 127 0;
#X connect 123 0 124 0;
#X connect 124 0 122 0;
#X connect 125 0 121 0;
#X connect 126 0 128 0;
#X connect 127 0 125 0;
#X connect 127 1 126 0;
#X connect 128 0 130 0;
#X connect 129 0 128 1;
#X connect 131 0 123 0;
#X connect 132 0 133 0;
#X connect 133 0 131 1;
#X connect 134 0 135 0;
#X connect 135 0 131 1;
#X connect 136 0 168 0;
#X connect 137 0 171 0;
#X connect 138 0 172 0;
#X connect 139 0 173 0;
#X connect 140 0 174 0;
#X connect 141 0 175 0;
#X connect 142 0 176 0;
#X connect 143 0 177 0;
#X connect 144 0 178 0;
#X connect 145 0 179 0;
#X connect 146 0 180 0;
#X connect 147 0 181 0;
#X connect 148 0 182 0;
#X connect 149 0 183 0;
#X connect 150 0 184 0;
#X connect 151 0 185 0;
#X connect 152 0 168 0;
#X connect 153 0 171 0;
#X connect 154 0 172 0;
#X connect 155 0 173 0;
#X connect 156 0 174 0;
#X connect 157 0 175 0;
#X connect 158 0 176 0;
#X connect 159 0 177 0;
#X connect 160 0 178 0;
#X connect 161 0 179 0;
#X connect 162 0 180 0;
#X connect 163 0 181 0;
#X connect 164 0 182 0;
#X connect 165 0 183 0;
#X connect 166 0 184 0;
#X connect 167 0 185 0;
#X connect 168 0 169 0;
#X connect 171 0 170 0;
#X connect 172 0 186 0;
#X connect 173 0 187 0;
#X connect 174 0 188 0;
#X connect 175 0 189 0;
#X connect 176 0 190 0;
#X connect 177 0 191 0;
#X connect 178 0 192 0;
#X connect 179 0 193 0;
#X connect 180 0 194 0;
#X connect 181 0 195 0;
#X connect 182 0 196 0;
#X connect 183 0 197 0;
#X connect 184 0 198 0;
#X connect 185 0 199 0;
#X coords 0 -1 1 1 500 170 1 100 100;
