#N canvas -8 -8 1920 998 10;
#X obj 676 191 voice 1;
#N canvas 0 50 952 964 listgenerate 0;
#X obj 490 13 inlet;
#X obj 175 331 outlet;
#X obj 490 38 bng 15 250 50 0 empty empty empty 17 7 0 10 -262144 -1
-1;
#X obj 490 58 t b b b;
#X obj 513 101 until;
#X obj 514 181 list append;
#X obj 491 238 list;
#X obj 536 212 list;
#X msg 513 79 8;
#X obj 513 123 vurnilla 32;
#X text 601 123 reference the value;
#X text 883 172 name of sample;
#X obj 493 281 s samplenumber1;
#X obj 503 291 s samplenumber2;
#X obj 513 301 s samplenumber3;
#X obj 523 311 s samplenumber4;
#X obj 533 321 s samplenumber5;
#X obj 543 331 s samplenumber6;
#X obj 553 341 s samplenumber7;
#X obj 563 351 s samplenumber8;
#X obj 353 262 list prepend set;
#X obj 353 287 list trim;
#X msg 175 306 EAU6 EAU4 EAU3 EAU2 EAU5 EAU7 EAU1 EAU8;
#X obj 491 260 unpack s s s s s s s s;
#X obj 587 72 r SampleNumber;
#X obj 777 169 s tosamplename;
#X obj 527 158 r fromsamplename;
#X obj 701 174 + 1;
#X connect 0 0 2 0;
#X connect 2 0 3 0;
#X connect 3 0 6 0;
#X connect 3 1 8 0;
#X connect 3 2 7 0;
#X connect 4 0 9 0;
#X connect 5 0 6 1;
#X connect 5 0 7 0;
#X connect 6 0 20 0;
#X connect 6 0 23 0;
#X connect 7 0 5 1;
#X connect 8 0 4 0;
#X connect 9 0 27 0;
#X connect 20 0 21 0;
#X connect 21 0 22 0;
#X connect 21 0 1 0;
#X connect 23 0 12 0;
#X connect 23 1 13 0;
#X connect 23 2 14 0;
#X connect 23 3 15 0;
#X connect 23 4 16 0;
#X connect 23 5 17 0;
#X connect 23 6 18 0;
#X connect 23 7 19 0;
#X connect 24 0 9 1;
#X connect 26 0 5 0;
#X connect 27 0 25 0;
#X restore 324 300 pd listgenerate;
#X obj 124 270 bng 30 250 50 0 empty empty RANDOM_LOADER 32 7 0 10
-260097 -1 -1;
#X msg 156 22 sr 48000;
#X msg 162 45 sr 44100;
#X obj 122 173 s samplerate;
#X text 170 124 GUI_SAMPLERATE;
#X obj 124 314 bng 28 250 50 0 empty empty PLAY 30 3 0 10 -4034 -1
-1;
#X obj 154 378 bng 15 250 50 0 empty empty play_1 17 7 0 10 -4034 -1
-1;
#X obj 154 396 bng 15 250 50 0 empty empty play_2 17 7 0 10 -4034 -1
-1;
#X obj 154 413 bng 15 250 50 0 empty empty play_3 17 7 0 10 -4034 -1
-1;
#X obj 154 431 bng 15 250 50 0 empty empty play_4 17 7 0 10 -4034 -1
-1;
#X obj 154 448 bng 15 250 50 0 empty empty play_5 17 7 0 10 -4034 -1
-1;
#X obj 154 466 bng 15 250 50 0 empty empty play_6 17 7 0 10 -4034 -1
-1;
#X obj 154 483 bng 15 250 50 0 empty empty play_7 17 7 0 10 -4034 -1
-1;
#X obj 154 501 bng 15 250 50 0 empty empty play_8 17 7 0 10 -4034 -1
-1;
#X obj 208 378 s playvoice1;
#X obj 208 395 s playvoice2;
#X obj 208 413 s playvoice3;
#X obj 208 430 s playvoice4;
#X obj 208 448 s playvoice5;
#X obj 208 465 s playvoice6;
#X obj 208 483 s playvoice7;
#X obj 208 500 s playvoice8;
#X floatatom 122 226 5 0 0 0 - - -, f 5;
#X obj 123 247 s SampleNumber;
#X text 162 226 Sample number;
#X msg 58 203 8;
#X obj 32 154 loadbang;
#X obj 324 324 s listgenerated;
#X obj 120 115 bng 15 250 50 0 empty empty 48000 17 7 0 10 -262144
-1 -1;
#X obj 120 134 bng 15 250 50 0 empty empty 44100 17 7 0 10 -262144
-1 -1;
#X obj 357 138 s sampleratevalue;
#X msg 381 51 48000;
#X msg 384 75 44100;
#X obj 130 3 loadbang;
#X obj 676 211 voice 2;
#X obj 676 230 voice 3;
#X obj 676 250 voice 4;
#X obj 732 191 voice 5;
#X obj 732 211 voice 6;
#X obj 732 230 voice 7;
#X obj 732 250 voice 8;
#X obj 185 314 tgl 30 0 empty empty RECORD_ARMED 32 4 0 10 -258113
-1 -1 0 1;
#X obj 456 371 spigot;
#X obj 448 414 s startrecord;
#X obj 545 503 r Stoprecord;
#X msg 498 521 0;
#X floatatom 230 181 5 0 0 0 - - -, f 5;
#X obj 408 230 loadbang;
#X msg 409 248 1000;
#X text 225 192 delay time;
#X obj 32 240 r rndtotal;
#X obj 365 196 s delaytime;
#X connect 1 0 29 0;
#X connect 2 0 1 0;
#X connect 3 0 4 0;
#X connect 4 0 5 0;
#X connect 7 0 8 0;
#X connect 7 0 9 0;
#X connect 7 0 10 0;
#X connect 7 0 11 0;
#X connect 7 0 12 0;
#X connect 7 0 13 0;
#X connect 7 0 14 0;
#X connect 7 0 15 0;
#X connect 7 0 44 0;
#X connect 8 0 16 0;
#X connect 9 0 17 0;
#X connect 10 0 18 0;
#X connect 11 0 19 0;
#X connect 12 0 20 0;
#X connect 13 0 21 0;
#X connect 14 0 22 0;
#X connect 15 0 23 0;
#X connect 24 0 25 0;
#X connect 27 0 24 0;
#X connect 28 0 27 0;
#X connect 28 0 2 0;
#X connect 30 0 3 0;
#X connect 30 0 33 0;
#X connect 31 0 4 0;
#X connect 31 0 34 0;
#X connect 33 0 32 0;
#X connect 34 0 32 0;
#X connect 35 0 3 0;
#X connect 43 0 44 1;
#X connect 44 0 45 0;
#X connect 46 0 47 0;
#X connect 47 0 43 0;
#X connect 48 0 53 0;
#X connect 49 0 50 0;
#X connect 50 0 48 0;
#X connect 52 0 2 0;
#X coords 0 -1 1 1 200 420 1 100 100;
