#N canvas 960 0 944 982 12;
#X obj 47 405 phasor~;
#X obj 48 585 *~ -1;
#X obj 48 610 +~ 1;
#X obj 148 699 sig~ 1;
#X obj 213 707 cos~;
#X obj 149 732 -~;
#X obj 150 757 *~ 0.5;
#X obj 71 786 *~;
#X obj 79 672 samphold~;
#X obj 48 699 *~;
#X obj 80 644 sig~;
#X floatatom 157 384 5 0 0 0 - - -, f 5;
#X floatatom 110 307 10 0 0 0 - - -, f 10;
#X floatatom 79 367 5 0 0 0 - - -, f 5;
#X floatatom 432 228 5 0 0 0 - - -, f 5;
#X obj 432 249 t b f;
#X obj 157 358 / 44.1;
#X obj 434 554 *~ -1;
#X obj 435 587 +~ 1;
#X obj 528 683 sig~ 1;
#X obj 592 690 cos~;
#X obj 529 714 -~;
#X obj 530 739 *~ 0.5;
#X obj 457 771 *~;
#X obj 469 652 samphold~;
#X obj 435 679 *~;
#X obj 470 624 sig~;
#X obj 455 467 +~ 0.5;
#X obj 455 489 wrap~;
#X obj 167 75 vsl 15 128 100 30000 0 0 empty empty empty 0 -8 0 8 -262144
-1 -1 0 1;
#X obj 147 215 t b f;
#X obj 432 148 vsl 15 73 -36 36 0 0 empty empty empty 0 -8 0 8 -262144
-1 -1 0 1;
#X text 449 212 -36;
#X text 455 140 36;
#X text 127 28 30000;
#X text 164 196 100;
#X text 468 370 3.7.2.1. Granular live;
#X text 80 10 window width;
#X text 446 39 Transposition (half-steps);
#X text 252 732 another way to;
#X text 226 758 make a Hanning window;
#X text 405 951 www.pd-tutorial.com;
#X text 422 924 Johannes Kreidler;
#X obj 10 14 inlet~;
#X obj 39 740 delread4~ d\$1;
#X obj 419 721 delread4~ d\$1;
#X obj 9 92 delwrite~ d\$1 5000;
#X obj 124 924 outlet~;
#X obj 497 89 loadbang;
#X msg 511 126 0;
#X obj 110 328 expr (pow(2 \, ($f2/12)) - 1) * (48000/$f1);
#X obj 125 869 *~ 1;
#X obj 185 23 r windowidth\$1;
#X obj 428 68 r transposition\$1;
#X floatatom 397 185 5 0 0 0 - - -, f 5;
#X floatatom 244 113 5 0 0 0 - - -, f 5;
#X connect 0 0 1 0;
#X connect 0 0 4 0;
#X connect 0 0 8 1;
#X connect 0 0 27 0;
#X connect 1 0 2 0;
#X connect 2 0 9 0;
#X connect 3 0 5 0;
#X connect 4 0 5 1;
#X connect 5 0 6 0;
#X connect 6 0 7 1;
#X connect 7 0 51 0;
#X connect 8 0 9 1;
#X connect 9 0 44 0;
#X connect 10 0 8 0;
#X connect 11 0 26 0;
#X connect 11 0 10 0;
#X connect 12 0 16 0;
#X connect 12 0 50 0;
#X connect 13 0 0 0;
#X connect 14 0 15 0;
#X connect 15 0 12 0;
#X connect 15 1 50 1;
#X connect 16 0 11 0;
#X connect 17 0 18 0;
#X connect 18 0 25 0;
#X connect 19 0 21 0;
#X connect 20 0 21 1;
#X connect 21 0 22 0;
#X connect 22 0 23 1;
#X connect 23 0 51 0;
#X connect 24 0 25 1;
#X connect 25 0 45 0;
#X connect 26 0 24 0;
#X connect 27 0 28 0;
#X connect 28 0 17 0;
#X connect 28 0 24 1;
#X connect 28 0 20 0;
#X connect 29 0 30 0;
#X connect 30 0 14 0;
#X connect 30 1 12 0;
#X connect 31 0 14 0;
#X connect 43 0 46 0;
#X connect 44 0 7 0;
#X connect 45 0 23 0;
#X connect 48 0 49 0;
#X connect 49 0 15 0;
#X connect 50 0 13 0;
#X connect 51 0 47 0;
#X connect 52 0 30 0;
#X connect 52 0 55 0;
#X connect 53 0 14 0;
#X connect 53 0 54 0;
