#N canvas 960 50 944 982 10;
#X obj 257 135 vcf~;
#X obj 55 11 inlet~;
#X obj 279 52 r Flop\$1;
#X obj 305 81 r Freso\$1;
#X obj 250 251 outlet~;
#X obj 323 109 / 1000;
#X msg 320 155 \$1 20;
#X floatatom 424 209 5 0 0 0 - - -, f 5;
#X obj 322 132 * 256;
#X obj 257 222 *~;
#X obj 319 179 line~;
#X connect 0 1 9 0;
#X connect 1 0 0 0;
#X connect 2 0 0 1;
#X connect 3 0 0 2;
#X connect 3 0 5 0;
#X connect 5 0 8 0;
#X connect 6 0 10 0;
#X connect 8 0 6 0;
#X connect 8 0 7 0;
#X connect 9 0 4 0;
#X connect 10 0 9 1;
