#N canvas 0 50 1920 998 10;
#X obj 676 191 voice 1;
#N canvas 0 50 952 964 listgenerate 0;
#X obj 490 13 inlet;
#X obj 175 331 outlet;
#X obj 490 38 bng 15 250 50 0 empty empty empty 17 7 0 10 -262144 -1
-1;
#X obj 490 58 t b b b;
#X obj 513 101 until;
#X obj 514 181 list append;
#X obj 491 238 list;
#X obj 536 212 list;
#X msg 513 79 8;
#X obj 513 123 vurnilla 32;
#X text 601 123 reference the value;
#X text 883 172 name of sample;
#X obj 493 281 s samplenumber1;
#X obj 503 291 s samplenumber2;
#X obj 513 301 s samplenumber3;
#X obj 523 311 s samplenumber4;
#X obj 533 321 s samplenumber5;
#X obj 543 331 s samplenumber6;
#X obj 553 341 s samplenumber7;
#X obj 563 351 s samplenumber8;
#X obj 353 262 list prepend set;
#X obj 353 287 list trim;
#X msg 175 306 SYNTH2 SYNTH1 SYNTH7 SYNTH8 SYNTH3 SYNTH5 SYNTH4 SYNTH6
;
#X obj 491 260 unpack s s s s s s s s;
#X obj 587 72 r SampleNumber;
#X obj 777 169 s tosamplename;
#X obj 527 158 r fromsamplename;
#X obj 701 174 + 1;
#X connect 0 0 2 0;
#X connect 2 0 3 0;
#X connect 3 0 6 0;
#X connect 3 1 8 0;
#X connect 3 2 7 0;
#X connect 4 0 9 0;
#X connect 5 0 6 1;
#X connect 5 0 7 0;
#X connect 6 0 20 0;
#X connect 6 0 23 0;
#X connect 7 0 5 1;
#X connect 8 0 4 0;
#X connect 9 0 27 0;
#X connect 20 0 21 0;
#X connect 21 0 22 0;
#X connect 21 0 1 0;
#X connect 23 0 12 0;
#X connect 23 1 13 0;
#X connect 23 2 14 0;
#X connect 23 3 15 0;
#X connect 23 4 16 0;
#X connect 23 5 17 0;
#X connect 23 6 18 0;
#X connect 23 7 19 0;
#X connect 24 0 9 1;
#X connect 26 0 5 0;
#X connect 27 0 25 0;
#X restore 324 300 pd listgenerate;
#X obj 121 176 bng 30 250 50 0 empty empty RANDOM_LOADER 32 7 0 10
-260097 -1 -1;
#X msg 156 22 sr 48000;
#X msg 162 45 sr 44100;
#X obj 210 77 s samplerate;
#X obj 124 227 bng 28 250 50 0 empty empty PLAY 30 3 0 10 -4034 -1
-1;
#X obj 241 378 bng 15 250 50 0 empty empty play_1 17 7 0 10 -4034 -1
-1;
#X obj 241 395 bng 15 250 50 0 empty empty play_2 17 7 0 10 -4034 -1
-1;
#X obj 241 413 bng 15 250 50 0 empty empty play_3 17 7 0 10 -4034 -1
-1;
#X obj 241 430 bng 15 250 50 0 empty empty play_4 17 7 0 10 -4034 -1
-1;
#X obj 241 448 bng 15 250 50 0 empty empty play_5 17 7 0 10 -4034 -1
-1;
#X obj 241 466 bng 15 250 50 0 empty empty play_6 17 7 0 10 -4034 -1
-1;
#X obj 241 483 bng 15 250 50 0 empty empty play_7 17 7 0 10 -4034 -1
-1;
#X obj 241 501 bng 15 250 50 0 empty empty play_8 17 7 0 10 -4034 -1
-1;
#X obj 326 378 s playvoice1;
#X obj 326 395 s playvoice2;
#X obj 326 413 s playvoice3;
#X obj 326 430 s playvoice4;
#X obj 326 448 s playvoice5;
#X obj 326 465 s playvoice6;
#X obj 326 483 s playvoice7;
#X obj 326 500 s playvoice8;
#X floatatom 120 155 5 0 0 0 - - -, f 5;
#X obj 1 0 s SampleNumber;
#X text 169 155 Sample number;
#X msg 58 203 8;
#X obj 32 154 loadbang;
#X obj 324 324 s listgenerated;
#X obj 120 115 bng 15 250 50 0 empty empty 48000 17 7 0 10 -262144
-1 -1;
#X obj 120 134 bng 15 250 50 0 empty empty 44100 17 7 0 10 -262144
-1 -1;
#X obj 357 138 s sampleratevalue;
#X msg 381 51 48000;
#X msg 384 75 44100;
#X obj 130 3 loadbang;
#X obj 123 259 tgl 30 0 empty empty RECORD_ARMED 32 4 0 10 -258113
-1 -1 0 1;
#X obj 481 384 spigot;
#X obj 482 430 s startrecord;
#X obj 545 503 r Stoprecord;
#X msg 498 521 0;
#X obj 397 235 loadbang;
#X msg 402 255 1000;
#X obj 32 240 r rndtotal;
#X obj 829 416 s delaytime;
#X obj 187 377 hsl 50 15 1 10000 0 0 empty empty dly -25 12 0 10 -4034
-1 -1 0 1;
#X obj 187 395 hsl 50 15 1 10000 0 0 empty empty dly -25 12 0 10 -4034
-1 -1 0 1;
#X obj 187 413 hsl 50 15 1 10000 0 0 empty empty dly -25 12 0 10 -4034
-1 -1 0 1;
#X obj 187 430 hsl 50 15 1 10000 0 0 empty empty dly -25 12 0 10 -4034
-1 -1 0 1;
#X obj 187 448 hsl 50 15 1 10000 0 0 empty empty dly -25 12 0 10 -4034
-1 -1 0 1;
#X obj 187 465 hsl 50 15 0 10000 0 0 empty empty dly -25 12 0 10 -4034
-1 -1 0 1;
#X obj 187 483 hsl 50 15 1 10000 0 0 empty empty dly -25 12 0 10 -4034
-1 -1 0 1;
#X obj 187 501 hsl 50 15 1 10000 0 0 empty empty dly -25 12 0 10 -4034
-1 -1 0 1;
#X obj 139 377 bng 15 250 50 0 empty empty rnd_1 17 7 0 10 -4034 -1
-1;
#X obj 139 448 bng 15 250 50 0 empty empty rnd_1 17 7 0 10 -4034 -1
-1;
#X obj 139 395 bng 15 250 50 0 empty empty rnd_1 17 7 0 10 -4034 -1
-1;
#X obj 139 466 bng 15 250 50 0 empty empty rnd_1 17 7 0 10 -4034 -1
-1;
#X obj 139 413 bng 15 250 50 0 empty empty rnd_1 17 7 0 10 -4034 -1
-1;
#X obj 139 483 bng 15 250 50 0 empty empty rnd_1 17 7 0 10 -4034 -1
-1;
#X obj 139 431 bng 15 250 50 0 empty empty rnd_1 17 7 0 10 -4034 -1
-1;
#X obj 139 501 bng 15 250 50 0 empty empty rnd_1 17 7 0 10 -4034 -1
-1;
#X obj 122 377 tgl 15 0 empty empty empty 17 7 0 10 -260097 -1 -1 0
1;
#X obj 122 396 tgl 15 0 empty empty empty 17 7 0 10 -260097 -1 -1 0
1;
#X obj 122 413 tgl 15 0 empty empty empty 17 7 0 10 -260097 -1 -1 0
1;
#X obj 122 431 tgl 15 0 empty empty empty 17 7 0 10 -260097 -1 -1 0
1;
#X obj 122 448 tgl 15 0 empty empty empty 17 7 0 10 -260097 -1 -1 0
1;
#X obj 122 466 tgl 15 0 empty empty empty 17 7 0 10 -260097 -1 -1 0
1;
#X obj 122 483 tgl 15 0 empty empty empty 17 7 0 10 -260097 -1 -1 0
1;
#X obj 122 501 tgl 15 0 empty empty empty 17 7 0 10 -260097 -1 -1 0
1;
#X text 101 514 freeze value;
#X obj 128 348 bng 25 250 50 0 empty empty dly_RANDOM 27 4 0 10 -4034
-1 -1;
#X obj -73 173 r rndtotal;
#X obj -86 217 spigot;
#X obj -49 194 expr 1 -$f1;
#X obj 0 284 expr 1 -$f1;
#X obj -2 421 spigot;
#X obj -84 277 expr 1 -$f1;
#X obj -79 417 spigot;
#X obj 0 312 expr 1 -$f1;
#X obj -5 459 spigot;
#X obj -84 312 expr 1 -$f1;
#X obj -81 454 spigot;
#X obj 0 346 expr 1 -$f1;
#X obj -7 498 spigot;
#X obj -84 346 expr 1 -$f1;
#X obj -85 495 spigot;
#X obj 0 381 expr 1 -$f1;
#X obj -9 530 spigot;
#X obj -84 381 expr 1 -$f1;
#X obj -82 533 spigot;
#X msg 462 260 0;
#X obj 186 322 hsl 50 15 1 1000 0 0 empty empty dly_range -2 -8 0 10
-262144 -1 -1 0 1;
#X msg 746 329 1;
#X msg 780 331 10;
#X obj 193 340 bng 15 250 50 0 empty empty *1 17 7 0 10 -262144 -1
-1;
#X obj 230 341 bng 15 250 50 0 empty empty *10 17 7 0 10 -262144 -1
-1;
#X obj 741 369 *;
#X obj 746 349 t b f;
#X floatatom 185 359 5 0 0 0 - - -, f 5;
#X obj -174 649 random;
#X obj -169 719 random;
#X obj -27 651 random;
#X obj -22 721 random;
#X obj 127 653 random;
#X obj 131 723 random;
#X obj 274 655 random;
#X obj 278 725 random;
#X obj -160 624 r dlyrange;
#X obj -32 626 r dlyrange;
#X obj 122 628 r dlyrange;
#X obj 269 630 r dlyrange;
#X obj -174 694 r dlyrange;
#X obj -27 696 r dlyrange;
#X obj 128 697 r dlyrange;
#X obj 273 700 r dlyrange;
#X obj 516 606 delay;
#X obj 190 565 s dly1;
#X obj 246 568 s dly2;
#X obj 297 571 s dly3;
#X obj 344 572 s dly4;
#X obj 195 588 s dly5;
#X obj 250 592 s dly6;
#X obj 300 594 s dly7;
#X obj 349 595 s dly8;
#X obj 517 585 r dly1;
#X obj 573 586 r dly2;
#X obj 624 591 r dly3;
#X obj 671 592 r dly4;
#X obj 527 641 r dly5;
#X obj 582 645 r dly6;
#X obj 632 647 r dly7;
#X obj 681 648 r dly8;
#X obj 577 611 delay;
#X obj 628 613 delay;
#X obj 679 614 delay;
#X obj 529 666 delay;
#X obj 590 671 delay;
#X obj 641 673 delay;
#X obj 692 674 delay;
#X obj 491 296 s playbutton;
#X obj 855 522 r playbutton;
#X obj 128 321 tgl 25 0 empty empty empty 17 7 0 10 -260097 -1 -1 0
1;
#X msg 82 289 0;
#X floatatom -156 672 5 0 0 0 - - -, f 5;
#X obj 240 521 s dlystop;
#X obj 749 415 s dlyrange;
#X obj 242 215 tgl 30 0 empty empty LOOP_MODE 32 4 0 10 -257985 -1
-1 0 1;
#X obj 391 208 s loopmode;
#X obj -216 367 r loop_dly_voice1;
#X obj -216 386 r loop_dly_voice2;
#X obj -215 406 r loop_dly_voice3;
#X obj -215 426 r loop_dly_voice4;
#X obj -214 446 r loop_dly_voice5;
#X obj -214 466 r loop_dly_voice6;
#X obj -214 486 r loop_dly_voice7;
#X obj -214 505 r loop_dly_voice8;
#X obj 158 271 tgl 15 0 empty empty autorec 17 7 0 10 -258113 -1 -1
0 1;
#X obj 1082 445 s autopstoprec;
#X msg 93 50 0;
#X obj 693 166 s Stoprecord;
#X obj 242 256 bng 30 250 50 0 empty empty STOP_RECORD 32 7 0 10 -258113
-1 -1;
#X msg 627 170 0;
#X obj 663 142 t b b;
#X obj 284 946 s playvoice\$1;
#X obj 871 584 r loopvoice1;
#X obj 871 602 r loopvoice2;
#X obj 871 619 r loopvoice3;
#X obj 871 637 r loopvoice4;
#X obj 872 655 r loopvoice5;
#X obj 872 673 r loopvoice6;
#X obj 872 690 r loopvoice7;
#X obj 872 708 r loopvoice8;
#X obj 18 84 r shutdown;
#X obj 19 105 t b b;
#X obj 676 211 voice 2;
#X obj 676 230 voice 3;
#X obj 676 250 voice 4;
#X obj 732 191 voice 5;
#X obj 732 211 voice 6;
#X obj 732 230 voice 7;
#X obj 732 250 voice 8;
#X msg 63 125 0;
#X floatatom 242 196 5 0 0 0 - - -, f 5;
#X obj 972 102 r playbutton;
#X obj 973 133 delay 5000;
#X obj 299 199 s looplengh;
#X obj 1063 105 r looplengh;
#X obj 1075 130 * 1000;
#X msg 970 156 0;
#X obj 952 219 delay 3000;
#X obj 938 187 spigot;
#X msg 370 864;
#X obj 104 501 tgl 15 0 empty empty empty 17 7 0 10 -260097 -1 -1 0
1;
#X text 170 124 SAMPLERATE;
#X text 166 195 loop lengh;
#X connect 1 0 28 0;
#X connect 2 0 1 0;
#X connect 3 0 4 0;
#X connect 4 0 5 0;
#X connect 6 0 36 0;
#X connect 6 0 138 0;
#X connect 7 0 15 0;
#X connect 7 0 143 0;
#X connect 8 0 16 0;
#X connect 8 0 143 0;
#X connect 9 0 17 0;
#X connect 9 0 143 0;
#X connect 10 0 18 0;
#X connect 10 0 143 0;
#X connect 11 0 19 0;
#X connect 11 0 143 0;
#X connect 12 0 20 0;
#X connect 12 0 143 0;
#X connect 13 0 21 0;
#X connect 13 0 143 0;
#X connect 14 0 22 0;
#X connect 14 0 143 0;
#X connect 23 0 24 0;
#X connect 26 0 23 0;
#X connect 27 0 26 0;
#X connect 27 0 2 0;
#X connect 27 0 141 0;
#X connect 29 0 3 0;
#X connect 29 0 32 0;
#X connect 30 0 4 0;
#X connect 30 0 33 0;
#X connect 32 0 31 0;
#X connect 33 0 31 0;
#X connect 34 0 3 0;
#X connect 34 0 157 0;
#X connect 35 0 36 1;
#X connect 35 0 189 1;
#X connect 36 0 37 0;
#X connect 38 0 39 0;
#X connect 39 0 35 0;
#X connect 40 0 41 0;
#X connect 40 0 89 0;
#X connect 40 0 93 0;
#X connect 42 0 2 0;
#X connect 44 0 115 0;
#X connect 45 0 116 0;
#X connect 46 0 117 0;
#X connect 47 0 118 0;
#X connect 48 0 119 0;
#X connect 49 0 120 0;
#X connect 50 0 121 0;
#X connect 51 0 122 0;
#X connect 52 0 76 0;
#X connect 53 0 84 0;
#X connect 54 0 74 0;
#X connect 55 0 82 0;
#X connect 56 0 80 0;
#X connect 57 0 88 0;
#X connect 58 0 78 0;
#X connect 59 0 86 0;
#X connect 60 0 75 0;
#X connect 61 0 73 0;
#X connect 62 0 79 0;
#X connect 63 0 77 0;
#X connect 64 0 83 0;
#X connect 65 0 81 0;
#X connect 66 0 87 0;
#X connect 67 0 85 0;
#X connect 69 0 52 0;
#X connect 69 0 54 0;
#X connect 69 0 56 0;
#X connect 69 0 58 0;
#X connect 69 0 53 0;
#X connect 69 0 55 0;
#X connect 69 0 57 0;
#X connect 69 0 59 0;
#X connect 70 0 71 0;
#X connect 71 0 69 0;
#X connect 72 0 71 1;
#X connect 73 0 74 1;
#X connect 74 0 100 0;
#X connect 75 0 76 1;
#X connect 76 0 98 0;
#X connect 77 0 78 1;
#X connect 78 0 104 0;
#X connect 79 0 80 1;
#X connect 80 0 102 0;
#X connect 81 0 82 1;
#X connect 82 0 101 0;
#X connect 83 0 84 1;
#X connect 84 0 99 0;
#X connect 85 0 86 1;
#X connect 86 0 105 0;
#X connect 87 0 88 1;
#X connect 88 0 103 0;
#X connect 89 0 90 0;
#X connect 89 0 140 0;
#X connect 89 0 145 0;
#X connect 90 0 95 0;
#X connect 91 0 96 0;
#X connect 92 0 96 0;
#X connect 93 0 91 0;
#X connect 94 0 92 0;
#X connect 95 0 97 0;
#X connect 95 0 144 0;
#X connect 95 0 43 0;
#X connect 96 0 95 0;
#X connect 96 1 95 1;
#X connect 98 0 44 0;
#X connect 98 0 142 0;
#X connect 99 0 48 0;
#X connect 100 0 45 0;
#X connect 101 0 49 0;
#X connect 102 0 46 0;
#X connect 103 0 50 0;
#X connect 104 0 47 0;
#X connect 105 0 51 0;
#X connect 106 0 98 1;
#X connect 107 0 100 1;
#X connect 108 0 102 1;
#X connect 109 0 104 1;
#X connect 110 0 99 1;
#X connect 111 0 101 1;
#X connect 112 0 103 1;
#X connect 113 0 105 1;
#X connect 114 0 7 0;
#X connect 123 0 114 1;
#X connect 124 0 131 1;
#X connect 125 0 132 1;
#X connect 126 0 133 1;
#X connect 127 0 134 1;
#X connect 128 0 135 1;
#X connect 129 0 136 1;
#X connect 130 0 137 1;
#X connect 131 0 8 0;
#X connect 132 0 9 0;
#X connect 133 0 10 0;
#X connect 134 0 11 0;
#X connect 135 0 12 0;
#X connect 136 0 13 0;
#X connect 137 0 14 0;
#X connect 139 0 114 0;
#X connect 139 0 131 0;
#X connect 139 0 132 0;
#X connect 139 0 133 0;
#X connect 139 0 134 0;
#X connect 139 0 135 0;
#X connect 139 0 136 0;
#X connect 139 0 137 0;
#X connect 140 0 72 0;
#X connect 141 0 60 0;
#X connect 141 0 61 0;
#X connect 141 0 62 0;
#X connect 141 0 63 0;
#X connect 141 0 64 0;
#X connect 141 0 65 0;
#X connect 141 0 66 0;
#X connect 141 0 67 0;
#X connect 145 0 146 0;
#X connect 147 0 52 0;
#X connect 148 0 54 0;
#X connect 149 0 56 0;
#X connect 150 0 58 0;
#X connect 151 0 53 0;
#X connect 152 0 55 0;
#X connect 153 0 57 0;
#X connect 154 0 59 0;
#X connect 155 0 156 0;
#X connect 157 0 155 0;
#X connect 159 0 161 0;
#X connect 160 0 35 0;
#X connect 161 0 160 0;
#X connect 161 1 158 0;
#X connect 163 0 114 0;
#X connect 164 0 131 0;
#X connect 165 0 132 0;
#X connect 166 0 133 0;
#X connect 167 0 134 0;
#X connect 168 0 135 0;
#X connect 169 0 136 0;
#X connect 170 0 137 0;
#X connect 171 0 172 0;
#X connect 172 0 159 0;
#X connect 172 1 180 0;
#X connect 180 0 145 0;
#X connect 181 0 184 0;
#X connect 182 0 183 0;
#X connect 183 0 187 0;
#X connect 183 0 189 0;
#X connect 185 0 186 0;
#X connect 186 0 183 1;
#X connect 187 0 145 0;
#X connect 188 0 159 0;
#X connect 189 0 188 0;
#X connect 191 0 67 0;
#X connect 191 0 66 0;
#X connect 191 0 65 0;
#X connect 191 0 64 0;
#X connect 191 0 63 0;
#X connect 191 0 62 0;
#X connect 191 0 61 0;
#X connect 191 0 60 0;
#X coords 0 -1 1 1 200 420 1 100 100;
