#N canvas 0 50 1920 998 10;
#X declare -path SAMPLE;
#X obj 588 232 soundfiler;
#N canvas 0 50 450 250 (subpatch) 0;
#X array s\$1 94976 float 2;
#X coords 0 1 94976 -1 200 140 1 0 0;
#X restore 807 92 graph;
#X obj 552 28 bng 15 250 50 0 empty empty empty 17 7 0 10 -262144 -1
-1;
#X obj 677 20 r samplenumber\$1;
#X obj 575 148 f \$1;
#X obj 637 122 symbol;
#X obj 588 183 pack f s;
#X obj 211 12 declare -path SAMPLE;
#X msg 588 205 read -resize \$2.wav s\$1;
#X obj 118 673 s_playtable;
#X msg 206 633 sr 48000;
#X msg 207 653 sr 44100;
#X obj 192 605 r samplerate;
#X obj 118 357 f \$1;
#X obj 159 46 r levelvalue\$1;
#X obj 207 163 r startvalue\$1;
#X msg 118 583 s\$1 \$2 \$3 \$4 \$5;
#X obj 118 559 pack f f f f f;
#X obj 231 191 r lenghvalue\$1;
#X obj 588 282 s samplesize\$1;
#X obj 249 218 r samplesize\$1;
#X obj 207 246 *;
#X obj 207 271 / 1000;
#X obj 141 376 f;
#X obj 189 414 f;
#X obj 213 538 f;
#X obj 76 46 t b b b b b;
#X obj 76 11 r playvoice\$1;
#X obj 357 550 pack f f;
#X msg 357 574 fade \$1 \$2;
#X obj 350 404 r fadeinvalue\$1;
#X obj 357 465 *;
#X obj 410 465 *;
#X obj 207 292 / 48000;
#X obj 207 314 * 1000;
#X obj 165 395 f 1;
#X obj 364 241 r sampleratevalue;
#X obj 411 420 r fadeoutvalue\$1;
#X obj 285 326 -;
#X obj 303 283 / 48000;
#X obj 303 302 * 1000;
#X obj 285 349 abs;
#X obj 231 404 *;
#X obj 281 370 t b f;
#X obj 231 370 / 1000;
#X obj 356 442 t b f;
#X obj 411 441 t b f;
#X obj 353 503 / 1000;
#X obj 407 505 / 1000;
#X obj 393 524 t b f;
#X obj 551 46 t b b b b;
#X obj 185 220 t b f;
#X obj 276 248 t b f;
#X obj 182 70 r pitchvalue\$1;
#X obj 182 95 / 100;
#X obj 182 117 + 4;
#X obj 182 139 / 4;
#X obj 287 71 r reverse\$1;
#X obj 182 175 * 1;
#X msg 283 115 1;
#X msg 316 114 -1;
#X obj 285 94 sel 0 1;
#X obj 283 137 t b f;
#X obj 322 136 t b f;
#X obj 584 306 r samplesize\$1;
#X obj 584 328 / 48000;
#X obj 584 347 * 1000;
#X obj 439 267 r reverse\$1;
#X obj 439 286 sel 0 1;
#X msg 442 326 0;
#X obj 444 352 expr $f1 - $f2;
#X obj 422 307 t b b;
#X obj 476 305 t b b;
#X obj 444 372 abs;
#X obj 118 967 s~ from-voice\$1;
#X obj 486 70 r timepitch;
#X obj 453 201 spigot;
#X obj 451 146 max 0.001;
#X obj 182 157 max 0.001;
#X obj 250 481 t b f;
#X msg 250 455 1;
#X obj 435 119 sel 0;
#X obj 527 118 sel 1;
#X obj 302 925 s loop_name_voice\$1;
#X obj 400 784 s loop_lvl_voice\$1;
#X obj 388 812 s loop_pitch_voice\$1;
#X obj 370 833 s loop_start_voice\$1;
#X obj 351 861 s loop_lengh_voice\$1;
#X obj 284 722 spigot;
#X obj 323 675 r loopmode;
#X obj 284 745 t b b b b b b b b;
#X obj 318 901 s loop_dly_voice\$1;
#X obj 333 881 s loop_rev_voice\$1;
#X obj 284 946 s loopvoice\$1;
#X obj 395 201 f 0.001;
#X obj 231 502 / 1;
#X connect 0 0 19 0;
#X connect 2 0 50 0;
#X connect 3 0 5 1;
#X connect 3 0 2 0;
#X connect 4 0 6 0;
#X connect 5 0 6 1;
#X connect 6 0 8 0;
#X connect 8 0 0 0;
#X connect 9 0 74 0;
#X connect 9 1 88 0;
#X connect 10 0 9 1;
#X connect 11 0 9 1;
#X connect 12 0 9 1;
#X connect 13 0 17 0;
#X connect 14 0 23 1;
#X connect 15 0 21 0;
#X connect 16 0 9 0;
#X connect 17 0 16 0;
#X connect 18 0 44 0;
#X connect 20 0 51 0;
#X connect 20 0 52 0;
#X connect 21 0 22 0;
#X connect 22 0 33 0;
#X connect 23 0 17 1;
#X connect 24 0 17 3;
#X connect 25 0 17 4;
#X connect 26 0 13 0;
#X connect 26 1 23 0;
#X connect 26 2 35 0;
#X connect 26 3 24 0;
#X connect 26 4 25 0;
#X connect 27 0 26 0;
#X connect 28 0 29 0;
#X connect 29 0 9 1;
#X connect 30 0 45 0;
#X connect 31 0 47 0;
#X connect 32 0 48 0;
#X connect 33 0 34 0;
#X connect 34 0 38 0;
#X connect 34 0 70 0;
#X connect 35 0 17 2;
#X connect 36 0 33 1;
#X connect 36 0 39 1;
#X connect 36 0 65 1;
#X connect 37 0 46 0;
#X connect 38 0 41 0;
#X connect 39 0 40 0;
#X connect 40 0 38 1;
#X connect 41 0 43 0;
#X connect 42 0 95 0;
#X connect 43 0 42 0;
#X connect 43 1 42 1;
#X connect 44 0 42 0;
#X connect 45 0 31 0;
#X connect 45 0 21 0;
#X connect 45 1 31 1;
#X connect 46 0 32 0;
#X connect 46 0 21 0;
#X connect 46 1 32 1;
#X connect 47 0 28 0;
#X connect 48 0 49 0;
#X connect 49 0 28 0;
#X connect 49 1 28 1;
#X connect 50 1 6 0;
#X connect 50 2 4 0;
#X connect 50 3 5 0;
#X connect 51 0 21 0;
#X connect 51 1 21 1;
#X connect 52 0 39 0;
#X connect 52 1 39 0;
#X connect 53 0 54 0;
#X connect 54 0 55 0;
#X connect 55 0 56 0;
#X connect 56 0 77 0;
#X connect 56 0 78 0;
#X connect 57 0 61 0;
#X connect 58 0 35 1;
#X connect 59 0 62 0;
#X connect 60 0 63 0;
#X connect 61 0 59 0;
#X connect 61 1 60 0;
#X connect 62 0 58 0;
#X connect 62 1 58 1;
#X connect 63 0 58 0;
#X connect 63 1 58 1;
#X connect 64 0 65 0;
#X connect 65 0 66 0;
#X connect 66 0 70 1;
#X connect 67 0 68 0;
#X connect 68 0 71 0;
#X connect 68 1 72 0;
#X connect 69 0 70 1;
#X connect 70 0 73 0;
#X connect 71 0 70 0;
#X connect 71 1 69 0;
#X connect 72 0 70 0;
#X connect 72 1 65 0;
#X connect 73 0 24 1;
#X connect 75 0 81 0;
#X connect 75 0 76 1;
#X connect 75 0 82 0;
#X connect 76 0 79 0;
#X connect 77 0 76 0;
#X connect 77 0 94 1;
#X connect 78 0 58 0;
#X connect 79 0 95 0;
#X connect 79 1 95 1;
#X connect 80 0 79 0;
#X connect 81 0 80 0;
#X connect 82 0 94 0;
#X connect 88 0 90 0;
#X connect 89 0 88 1;
#X connect 90 0 93 0;
#X connect 90 1 83 0;
#X connect 90 2 91 0;
#X connect 90 3 92 0;
#X connect 90 4 87 0;
#X connect 90 5 86 0;
#X connect 90 6 85 0;
#X connect 90 7 84 0;
#X connect 94 0 79 0;
#X connect 95 0 25 1;
#X connect 95 0 31 0;
#X connect 95 0 32 0;
